<?xml version="1.0" encoding="iso-8859-1"?>
<!-- Generator: Adobe Illustrator 16.0.0, SVG Export Plug-In . SVG Version: 6.00 Build 0)  -->
<!DOCTYPE svg PUBLIC "-//W3C//DTD SVG 1.1//EN" "http://www.w3.org/Graphics/SVG/1.1/DTD/svg11.dtd">
<svg version="1.1" id="Capa_1" xmlns="http://www.w3.org/2000/svg" xmlns:xlink="http://www.w3.org/1999/xlink" x="0px" y="0px"
	 width="611.98px" height="611.981px" viewBox="0 0 611.98 611.981" style="enable-background:new 0 0 611.98 611.981;"
	 xml:space="preserve">
<g>
	<g>
		<g id="Forward">
			<g>
				<path d="M600.792,278.842L371.4,49.602c-14.957-14.956-39.228-14.956-54.185,0c-14.956,14.956-14.956,39.208,0,54.164
					l164.099,164.002H38.251C17.117,267.768,0,284.885,0,306c0,21.113,17.117,38.23,38.251,38.23h443.063L317.217,508.234
					c-14.956,14.957-14.956,39.207,0,54.145c14.957,14.957,39.228,14.957,54.185,0L600.774,333.14
					c7.497-7.498,11.227-17.309,11.206-27.139C612.02,296.169,608.29,286.339,600.792,278.842z"/>
			</g>
		</g>
	</g>
</g>
<g>
</g>
<g>
</g>
<g>
</g>
<g>
</g>
<g>
</g>
<g>
</g>
<g>
</g>
<g>
</g>
<g>
</g>
<g>
</g>
<g>
</g>
<g>
</g>
<g>
</g>
<g>
</g>
<g>
</g>
</svg>
